<svg width="1780" height="332" viewBox="0 0 1780 332" fill="none" xmlns="http://www.w3.org/2000/svg">
<path d="M56.75 133.562C56.75 131.438 56.3125 129.562 55.4375 127.938C54.5625 126.312 53.3333 124.854 51.75 123.562C50.0833 122.354 48.1042 121.271 45.8125 120.312C43.5625 119.312 41.0417 118.417 38.25 117.625C33.9583 116.417 30 114.938 26.375 113.188C22.7917 111.396 19.7292 109.396 17.1875 107.188C14.6458 104.938 12.6458 102.396 11.1875 99.5625C9.77083 96.6875 9.0625 93.4583 9.0625 89.875C9.0625 86 9.89583 82.5208 11.5625 79.4375C13.2292 76.3125 15.4792 73.6458 18.3125 71.4375C21.1458 69.2708 24.4375 67.625 28.1875 66.5C31.9792 65.3333 35.9583 64.75 40.125 64.75C44.5417 64.75 48.6458 65.4375 52.4375 66.8125C56.2708 68.1458 59.6042 70.0208 62.4375 72.4375C65.2708 74.8958 67.5 77.8333 69.125 81.25C70.7917 84.625 71.625 88.375 71.625 92.5H56.75C56.5417 90.2083 56.0417 88.125 55.25 86.25C54.5 84.3333 53.4375 82.6875 52.0625 81.3125C50.6458 79.9792 48.9167 78.9375 46.875 78.1875C44.875 77.3958 42.5625 77 39.9375 77C37.6458 77 35.5208 77.3125 33.5625 77.9375C31.6458 78.5208 29.9792 79.3542 28.5625 80.4375C27.1458 81.5625 26.0417 82.9167 25.25 84.5C24.4583 86.0833 24.0625 87.8542 24.0625 89.8125C24.1042 91.8958 24.6458 93.7292 25.6875 95.3125C26.7292 96.8542 28.125 98.2083 29.875 99.375C31.6667 100.542 33.7083 101.562 36 102.438C38.3333 103.312 40.7708 104.125 43.3125 104.875C46.5208 105.792 49.6458 106.938 52.6875 108.312C55.7708 109.646 58.6042 111.271 61.1875 113.188C64.3958 115.604 66.9583 118.5 68.875 121.875C70.8333 125.208 71.8125 129.062 71.8125 133.438C71.8125 137.479 70.9583 141.042 69.25 144.125C67.5833 147.208 65.3333 149.771 62.5 151.812C59.625 153.938 56.2917 155.542 52.5 156.625C48.7083 157.667 44.7083 158.188 40.5 158.188C36.0417 158.188 31.6458 157.5 27.3125 156.125C22.9792 154.708 19.2083 152.667 16 150C13.0417 147.5 10.6875 144.562 8.9375 141.188C7.22917 137.812 6.35417 133.938 6.3125 129.562H21.3125C21.5208 132.354 22.1042 134.792 23.0625 136.875C24.0625 138.917 25.4167 140.604 27.125 141.938C28.7917 143.312 30.75 144.333 33 145C35.2917 145.667 37.7917 146 40.5 146C42.7917 146 44.9167 145.729 46.875 145.188C48.875 144.646 50.6042 143.833 52.0625 142.75C53.4792 141.708 54.6042 140.417 55.4375 138.875C56.3125 137.333 56.75 135.562 56.75 133.562ZM130.375 136.062H101.812L95.625 157H80L109.625 66H122.938L152.062 157H136.5L130.375 136.062ZM105.625 123.188H126.688L116.25 87.1875L105.625 123.188ZM184.75 157L156.75 66H173.188L190.5 129L192 134.438L193.562 128.938L211 66H227.375L199.375 157H184.75ZM242.188 66H295.812V78.4375H276.375V144.625H295.812V157H242.188V144.625H261.188V78.4375H242.188V66ZM381.375 78.4375H353.312V157H338.375V78.4375H310.5V66H381.375V78.4375ZM424.25 121.688H408.875V157H393.875V66H422.75C427.458 66.0417 431.792 66.6458 435.75 67.8125C439.708 68.9792 443.125 70.6875 446 72.9375C448.833 75.2292 451.042 78.0833 452.625 81.5C454.208 84.875 455 88.8333 455 93.375C455 96.5 454.583 99.3333 453.75 101.875C452.958 104.417 451.833 106.708 450.375 108.75C448.917 110.792 447.167 112.583 445.125 114.125C443.083 115.667 440.812 117 438.312 118.125L457.75 156.188V157H441.688L424.25 121.688ZM408.875 109.438H422.938C425.604 109.396 428 109 430.125 108.25C432.292 107.458 434.125 106.333 435.625 104.875C436.958 103.625 438 102.083 438.75 100.25C439.5 98.4167 439.875 96.3333 439.875 94C439.875 91.375 439.458 89.0833 438.625 87.125C437.833 85.125 436.646 83.4583 435.062 82.125C433.604 80.875 431.833 79.9375 429.75 79.3125C427.667 78.6458 425.333 78.2917 422.75 78.25H408.875V109.438ZM472.812 66H526.438V78.4375H507V144.625H526.438V157H472.812V144.625H491.812V78.4375H472.812V66ZM671.75 133.562C671.75 131.438 671.312 129.562 670.438 127.938C669.562 126.312 668.333 124.854 666.75 123.562C665.083 122.354 663.104 121.271 660.812 120.312C658.562 119.312 656.042 118.417 653.25 117.625C648.958 116.417 645 114.938 641.375 113.188C637.792 111.396 634.729 109.396 632.188 107.188C629.646 104.938 627.646 102.396 626.188 99.5625C624.771 96.6875 624.062 93.4583 624.062 89.875C624.062 86 624.896 82.5208 626.562 79.4375C628.229 76.3125 630.479 73.6458 633.312 71.4375C636.146 69.2708 639.438 67.625 643.188 66.5C646.979 65.3333 650.958 64.75 655.125 64.75C659.542 64.75 663.646 65.4375 667.438 66.8125C671.271 68.1458 674.604 70.0208 677.438 72.4375C680.271 74.8958 682.5 77.8333 684.125 81.25C685.792 84.625 686.625 88.375 686.625 92.5H671.75C671.542 90.2083 671.042 88.125 670.25 86.25C669.5 84.3333 668.438 82.6875 667.062 81.3125C665.646 79.9792 663.917 78.9375 661.875 78.1875C659.875 77.3958 657.562 77 654.938 77C652.646 77 650.521 77.3125 648.562 77.9375C646.646 78.5208 644.979 79.3542 643.562 80.4375C642.146 81.5625 641.042 82.9167 640.25 84.5C639.458 86.0833 639.062 87.8542 639.062 89.8125C639.104 91.8958 639.646 93.7292 640.688 95.3125C641.729 96.8542 643.125 98.2083 644.875 99.375C646.667 100.542 648.708 101.562 651 102.438C653.333 103.312 655.771 104.125 658.312 104.875C661.521 105.792 664.646 106.938 667.688 108.312C670.771 109.646 673.604 111.271 676.188 113.188C679.396 115.604 681.958 118.5 683.875 121.875C685.833 125.208 686.812 129.062 686.812 133.438C686.812 137.479 685.958 141.042 684.25 144.125C682.583 147.208 680.333 149.771 677.5 151.812C674.625 153.938 671.292 155.542 667.5 156.625C663.708 157.667 659.708 158.188 655.5 158.188C651.042 158.188 646.646 157.5 642.312 156.125C637.979 154.708 634.208 152.667 631 150C628.042 147.5 625.688 144.562 623.938 141.188C622.229 137.812 621.354 133.938 621.312 129.562H636.312C636.521 132.354 637.104 134.792 638.062 136.875C639.062 138.917 640.417 140.604 642.125 141.938C643.792 143.312 645.75 144.333 648 145C650.292 145.667 652.792 146 655.5 146C657.792 146 659.917 145.729 661.875 145.188C663.875 144.646 665.604 143.833 667.062 142.75C668.479 141.708 669.604 140.417 670.438 138.875C671.312 137.333 671.75 135.562 671.75 133.562ZM760 157H745.312V116.438H714.688V157H700.062V66H714.688V104.062H745.312V66H760V157ZM780.312 66H833.938V78.4375H814.5V144.625H833.938V157H780.312V144.625H799.312V78.4375H780.312V66ZM879.812 117.562L870 128.562V157H854.812V66H870V108.812L878.5 97.75L902.5 66H920.875L889.75 106.062L922.438 157H904.438L879.812 117.562ZM979.25 133.562C979.25 131.438 978.812 129.562 977.938 127.938C977.062 126.312 975.833 124.854 974.25 123.562C972.583 122.354 970.604 121.271 968.312 120.312C966.062 119.312 963.542 118.417 960.75 117.625C956.458 116.417 952.5 114.938 948.875 113.188C945.292 111.396 942.229 109.396 939.688 107.188C937.146 104.938 935.146 102.396 933.688 99.5625C932.271 96.6875 931.562 93.4583 931.562 89.875C931.562 86 932.396 82.5208 934.062 79.4375C935.729 76.3125 937.979 73.6458 940.812 71.4375C943.646 69.2708 946.938 67.625 950.688 66.5C954.479 65.3333 958.458 64.75 962.625 64.75C967.042 64.75 971.146 65.4375 974.938 66.8125C978.771 68.1458 982.104 70.0208 984.938 72.4375C987.771 74.8958 990 77.8333 991.625 81.25C993.292 84.625 994.125 88.375 994.125 92.5H979.25C979.042 90.2083 978.542 88.125 977.75 86.25C977 84.3333 975.938 82.6875 974.562 81.3125C973.146 79.9792 971.417 78.9375 969.375 78.1875C967.375 77.3958 965.062 77 962.438 77C960.146 77 958.021 77.3125 956.062 77.9375C954.146 78.5208 952.479 79.3542 951.062 80.4375C949.646 81.5625 948.542 82.9167 947.75 84.5C946.958 86.0833 946.562 87.8542 946.562 89.8125C946.604 91.8958 947.146 93.7292 948.188 95.3125C949.229 96.8542 950.625 98.2083 952.375 99.375C954.167 100.542 956.208 101.562 958.5 102.438C960.833 103.312 963.271 104.125 965.812 104.875C969.021 105.792 972.146 106.938 975.188 108.312C978.271 109.646 981.104 111.271 983.688 113.188C986.896 115.604 989.458 118.5 991.375 121.875C993.333 125.208 994.312 129.062 994.312 133.438C994.312 137.479 993.458 141.042 991.75 144.125C990.083 147.208 987.833 149.771 985 151.812C982.125 153.938 978.792 155.542 975 156.625C971.208 157.667 967.208 158.188 963 158.188C958.542 158.188 954.146 157.5 949.812 156.125C945.479 154.708 941.708 152.667 938.5 150C935.542 147.5 933.188 144.562 931.438 141.188C929.729 137.812 928.854 133.938 928.812 129.562H943.812C944.021 132.354 944.604 134.792 945.562 136.875C946.562 138.917 947.917 140.604 949.625 141.938C951.292 143.312 953.25 144.333 955.5 145C957.792 145.667 960.292 146 963 146C965.292 146 967.417 145.729 969.375 145.188C971.375 144.646 973.104 143.833 974.562 142.75C975.979 141.708 977.104 140.417 977.938 138.875C978.812 137.333 979.25 135.562 979.25 133.562ZM1067.5 157H1052.81V116.438H1022.19V157H1007.56V66H1022.19V104.062H1052.81V66H1067.5V157ZM1129.75 136.062H1101.19L1095 157H1079.38L1109 66H1122.31L1151.44 157H1135.88L1129.75 136.062ZM1105 123.188H1126.06L1115.62 87.1875L1105 123.188ZM1298.06 157H1283L1253.44 94.375L1253.38 157H1238.19V66H1253.44L1282.81 128.375L1282.94 66H1298.06V157ZM1318.44 66H1372.06V78.4375H1352.62V144.625H1372.06V157H1318.44V144.625H1337.44V78.4375H1318.44V66ZM1417.94 117.562L1408.12 128.562V157H1392.94V66H1408.12V108.812L1416.62 97.75L1440.62 66H1459L1427.88 106.062L1460.56 157H1442.56L1417.94 117.562ZM1523.44 116.188H1485.81V144.625H1529.75V157H1470.75V66H1529.44V78.4375H1485.81V104.062H1523.44V116.188ZM1611.38 78.4375H1583.31V157H1568.38V78.4375H1540.5V66H1611.38V78.4375ZM1667.88 136.062H1639.31L1633.12 157H1617.5L1647.12 66H1660.44L1689.56 157H1674L1667.88 136.062ZM1643.12 123.188H1664.19L1653.75 87.1875L1643.12 123.188ZM1759.31 157H1744.25L1714.69 94.375L1714.62 157H1699.44V66H1714.69L1744.06 128.375L1744.19 66H1759.31V157Z" fill="#A50036"/>
<path d="M8.67188 213.75H48.8906V223.078H34.3125V272.719H48.8906V282H8.67188V272.719H22.9219V223.078H8.67188V213.75ZM108.703 282H97.4062L75.2344 235.031L75.1875 282H63.7969V213.75H75.2344L97.2656 260.531L97.3594 213.75H108.703V282ZM170.719 223.078H149.672V282H138.469V223.078H117.562V213.75H170.719V223.078ZM220.078 251.391H191.859V272.719H224.812V282H180.562V213.75H224.578V223.078H191.859V242.297H220.078V251.391ZM260.531 255.516H249V282H237.75V213.75H259.406C262.938 213.781 266.188 214.234 269.156 215.109C272.125 215.984 274.688 217.266 276.844 218.953C278.969 220.672 280.625 222.812 281.812 225.375C283 227.906 283.594 230.875 283.594 234.281C283.594 236.625 283.281 238.75 282.656 240.656C282.062 242.562 281.219 244.281 280.125 245.812C279.031 247.344 277.719 248.688 276.188 249.844C274.656 251 272.953 252 271.078 252.844L285.656 281.391V282H273.609L260.531 255.516ZM249 246.328H259.547C261.547 246.297 263.344 246 264.938 245.438C266.562 244.844 267.938 244 269.062 242.906C270.062 241.969 270.844 240.812 271.406 239.438C271.969 238.062 272.25 236.5 272.25 234.75C272.25 232.781 271.938 231.062 271.312 229.594C270.719 228.094 269.828 226.844 268.641 225.844C267.547 224.906 266.219 224.203 264.656 223.734C263.094 223.234 261.344 222.969 259.406 222.938H249V246.328ZM399 261C398.688 264.312 397.906 267.328 396.656 270.047C395.406 272.734 393.766 275.031 391.734 276.938C389.672 278.875 387.219 280.375 384.375 281.438C381.562 282.469 378.438 282.984 375 282.984C372.188 282.984 369.594 282.609 367.219 281.859C364.875 281.078 362.781 279.984 360.938 278.578C359.156 277.266 357.594 275.688 356.25 273.844C354.938 271.969 353.828 269.922 352.922 267.703C352.016 265.516 351.328 263.141 350.859 260.578C350.422 258.016 350.203 255.344 350.203 252.562V243.234C350.203 240.578 350.422 238.016 350.859 235.547C351.297 233.078 351.953 230.75 352.828 228.562C353.766 226.125 354.969 223.922 356.438 221.953C357.938 219.953 359.656 218.25 361.594 216.844C363.438 215.562 365.469 214.562 367.688 213.844C369.938 213.125 372.391 212.766 375.047 212.766C378.641 212.766 381.844 213.297 384.656 214.359C387.5 215.422 389.922 216.922 391.922 218.859C393.953 220.828 395.547 223.203 396.703 225.984C397.891 228.766 398.656 231.859 399 235.266H387.75C387.562 233.234 387.172 231.406 386.578 229.781C386.016 228.125 385.234 226.719 384.234 225.562C383.203 224.406 381.938 223.531 380.438 222.938C378.938 222.312 377.141 222 375.047 222C373.578 222 372.25 222.203 371.062 222.609C369.906 223.016 368.875 223.594 367.969 224.344C366.719 225.25 365.672 226.438 364.828 227.906C364.016 229.344 363.344 230.953 362.812 232.734C362.406 234.297 362.094 235.969 361.875 237.75C361.688 239.5 361.594 241.297 361.594 243.141V252.562C361.594 254.844 361.719 256.984 361.969 258.984C362.25 260.984 362.672 262.812 363.234 264.469C363.672 265.844 364.219 267.094 364.875 268.219C365.562 269.344 366.375 270.312 367.312 271.125C368.281 272 369.391 272.672 370.641 273.141C371.922 273.578 373.375 273.797 375 273.797C376.938 273.797 378.656 273.516 380.156 272.953C381.656 272.391 382.938 271.562 384 270.469C385.031 269.406 385.859 268.078 386.484 266.484C387.109 264.891 387.516 263.062 387.703 261H399ZM456.844 252.422C456.844 255.172 456.594 257.828 456.094 260.391C455.625 262.953 454.938 265.375 454.031 267.656C453.062 269.938 451.859 272.047 450.422 273.984C448.984 275.891 447.328 277.531 445.453 278.906C443.641 280.156 441.625 281.141 439.406 281.859C437.219 282.578 434.812 282.938 432.188 282.938C429.469 282.938 426.969 282.562 424.688 281.812C422.438 281.031 420.422 279.969 418.641 278.625C416.828 277.25 415.234 275.594 413.859 273.656C412.516 271.719 411.391 269.594 410.484 267.281C409.609 265.062 408.953 262.703 408.516 260.203C408.078 257.672 407.859 255.078 407.859 252.422V243.422C407.859 240.641 408.094 237.953 408.562 235.359C409.031 232.766 409.734 230.312 410.672 228C411.578 225.781 412.688 223.75 414 221.906C415.344 220.031 416.922 218.406 418.734 217.031C420.484 215.688 422.469 214.656 424.688 213.938C426.938 213.188 429.406 212.812 432.094 212.812C434.812 212.812 437.312 213.188 439.594 213.938C441.875 214.688 443.922 215.734 445.734 217.078C447.547 218.422 449.125 220 450.469 221.812C451.812 223.625 452.938 225.609 453.844 227.766C454.844 230.078 455.594 232.562 456.094 235.219C456.594 237.844 456.844 240.578 456.844 243.422V252.422ZM445.5 243.328C445.469 241.609 445.359 239.922 445.172 238.266C445.016 236.609 444.734 235.031 444.328 233.531C443.859 231.812 443.234 230.25 442.453 228.844C441.703 227.406 440.781 226.188 439.688 225.188C438.719 224.312 437.609 223.625 436.359 223.125C435.109 222.625 433.688 222.375 432.094 222.375C430.562 222.375 429.188 222.625 427.969 223.125C426.75 223.594 425.688 224.25 424.781 225.094C423.688 226.125 422.766 227.359 422.016 228.797C421.266 230.203 420.688 231.781 420.281 233.531C419.906 235.031 419.625 236.625 419.438 238.312C419.281 239.969 419.203 241.641 419.203 243.328V252.422C419.203 254.078 419.281 255.719 419.438 257.344C419.594 258.969 419.859 260.531 420.234 262.031C420.641 263.719 421.188 265.297 421.875 266.766C422.594 268.203 423.453 269.422 424.453 270.422C425.422 271.359 426.531 272.109 427.781 272.672C429.062 273.203 430.531 273.469 432.188 273.469C433.781 273.469 435.219 273.203 436.5 272.672C437.812 272.141 438.938 271.422 439.875 270.516C440.969 269.484 441.875 268.266 442.594 266.859C443.344 265.422 443.938 263.844 444.375 262.125C444.75 260.625 445.016 259.062 445.172 257.438C445.359 255.781 445.469 254.109 445.5 252.422V243.328ZM480.516 272.719H513.094V282H469.219V213.75H480.516V272.719ZM538.172 272.719H570.75V282H526.875V213.75H538.172V272.719ZM623.672 251.391H595.453V272.719H628.406V282H584.156V213.75H628.172V223.078H595.453V242.297H623.672V251.391ZM686.953 273.609C686.016 274.734 684.875 275.828 683.531 276.891C682.188 277.922 680.672 278.844 678.984 279.656C676.859 280.688 674.547 281.484 672.047 282.047C669.547 282.641 666.875 282.938 664.031 282.938C661.406 282.938 658.953 282.594 656.672 281.906C654.391 281.219 652.328 280.25 650.484 279C648.641 277.75 646.984 276.234 645.516 274.453C644.078 272.672 642.875 270.688 641.906 268.5C640.812 266.219 639.984 263.703 639.422 260.953C638.859 258.203 638.562 255.312 638.531 252.281V243.562C638.562 240.625 638.828 237.812 639.328 235.125C639.859 232.438 640.625 229.953 641.625 227.672C642.594 225.516 643.75 223.547 645.094 221.766C646.438 219.984 647.969 218.438 649.688 217.125C651.562 215.75 653.625 214.688 655.875 213.938C658.156 213.188 660.625 212.812 663.281 212.812C666.875 212.812 670.062 213.297 672.844 214.266C675.625 215.234 678 216.625 679.969 218.438C681.969 220.281 683.547 222.516 684.703 225.141C685.859 227.734 686.594 230.656 686.906 233.906H675.844C675.562 232.125 675.141 230.516 674.578 229.078C674.016 227.609 673.266 226.375 672.328 225.375C671.328 224.312 670.094 223.5 668.625 222.938C667.188 222.375 665.484 222.094 663.516 222.094C662.078 222.094 660.75 222.344 659.531 222.844C658.312 223.312 657.219 223.969 656.25 224.812C655.125 225.781 654.141 226.984 653.297 228.422C652.484 229.828 651.812 231.406 651.281 233.156C650.812 234.688 650.469 236.328 650.25 238.078C650.031 239.828 649.922 241.625 649.922 243.469V252.281C649.922 254.438 650.062 256.484 650.344 258.422C650.656 260.359 651.109 262.156 651.703 263.812C652.172 265.062 652.719 266.234 653.344 267.328C654 268.422 654.766 269.391 655.641 270.234C656.734 271.328 658 272.172 659.438 272.766C660.906 273.359 662.562 273.672 664.406 273.703C665.5 273.703 666.609 273.641 667.734 273.516C668.859 273.359 669.938 273.125 670.969 272.812C671.969 272.5 672.891 272.109 673.734 271.641C674.578 271.141 675.25 270.562 675.75 269.906L675.797 256.266H663.422V247.5H686.859L686.953 273.609ZM738.984 251.391H710.766V272.719H743.719V282H699.469V213.75H743.484V223.078H710.766V242.297H738.984V251.391Z" fill="#F1F5F9"/>
</svg>
