<svg width="1780" height="332" viewBox="0 0 1780 332" fill="none" xmlns="http://www.w3.org/2000/svg">
<path d="M58.5 134C58.5 131.208 57.8542 128.854 56.5625 126.938C55.3125 125.021 53.6875 123.396 51.6875 122.062C49.6875 120.771 47.4792 119.688 45.0625 118.812C42.6875 117.938 40.3958 117.146 38.1875 116.438C34.9792 115.396 31.7083 114.146 28.375 112.688C25.0833 111.188 22.0833 109.396 19.375 107.312C16.625 105.188 14.375 102.688 12.625 99.8125C10.9167 96.8958 10.0625 93.4792 10.0625 89.5625C10.0625 85.6458 10.9167 82.1458 12.625 79.0625C14.375 75.9792 16.6458 73.375 19.4375 71.25C22.2292 69.125 25.3958 67.5208 28.9375 66.4375C32.4792 65.3125 36.0417 64.75 39.625 64.75C43.5833 64.75 47.3958 65.4167 51.0625 66.75C54.7292 68.0417 57.9792 69.875 60.8125 72.25C63.6458 74.625 65.9167 77.5 67.625 80.875C69.3333 84.25 70.2292 88.0208 70.3125 92.1875H58.4375C58.1042 89.5625 57.4583 87.1875 56.5 85.0625C55.5417 82.8958 54.2708 81.0417 52.6875 79.5C51.1042 77.9583 49.2083 76.7708 47 75.9375C44.8333 75.0625 42.375 74.625 39.625 74.625C37.4167 74.625 35.25 74.9375 33.125 75.5625C31.0417 76.1875 29.1875 77.125 27.5625 78.375C25.8958 79.625 24.5625 81.1667 23.5625 83C22.6042 84.8333 22.125 86.9583 22.125 89.375C22.1667 92 22.8333 94.2292 24.125 96.0625C25.4167 97.8542 27.0625 99.375 29.0625 100.625C31.0208 101.875 33.1458 102.917 35.4375 103.75C37.7708 104.583 39.9583 105.312 42 105.938C45.375 106.979 48.75 108.25 52.125 109.75C55.5 111.208 58.5833 113.083 61.375 115.375C64.125 117.5 66.3333 120.104 68 123.188C69.7083 126.271 70.5625 129.833 70.5625 133.875C70.5625 137.958 69.6458 141.521 67.8125 144.562C66.0208 147.604 63.6875 150.125 60.8125 152.125C57.9375 154.167 54.6875 155.708 51.0625 156.75C47.4375 157.75 43.8125 158.25 40.1875 158.25C35.8542 158.25 31.5833 157.521 27.375 156.062C23.2083 154.604 19.5833 152.5 16.5 149.75C13.75 147.375 11.5625 144.604 9.9375 141.438C8.35417 138.229 7.5 134.667 7.375 130.75H19.1875C19.5625 133.583 20.3333 136.104 21.5 138.312C22.6667 140.479 24.1667 142.312 26 143.812C27.8333 145.354 29.9375 146.521 32.3125 147.312C34.7292 148.062 37.3542 148.438 40.1875 148.438C42.4375 148.438 44.6458 148.167 46.8125 147.625C49.0208 147.042 50.9792 146.146 52.6875 144.938C54.3958 143.771 55.7917 142.292 56.875 140.5C57.9583 138.667 58.5 136.5 58.5 134ZM131.188 133.438H100.812L93.5 157H81.9375L111.312 66H121L149.875 157H138.375L131.188 133.438ZM103.938 123.375H128.125L116.125 83.875L103.938 123.375ZM186.938 157L158.188 66H170.562L190.562 133.938L191.875 138.375L193.25 133.812L213.375 66H225.688L197 157H186.938ZM241.5 66H296.5V76.0625H274.688V147H296.5V157H241.5V147H262.812V76.0625H241.5V66ZM379.75 75.875H351.625V157H340.375V75.875H312.25V66H379.75V75.875ZM425.375 119.875H407.188V157H395.688V66H422.375C426.625 66.0833 430.625 66.6875 434.375 67.8125C438.125 68.9375 441.417 70.625 444.25 72.875C447.042 75.125 449.229 77.9583 450.812 81.375C452.438 84.75 453.25 88.7292 453.25 93.3125C453.25 96.2708 452.812 98.9792 451.938 101.438C451.104 103.896 449.938 106.125 448.438 108.125C446.938 110.125 445.146 111.896 443.062 113.438C440.979 114.979 438.688 116.292 436.188 117.375L455.5 156.25L455.438 157H443.25L425.375 119.875ZM407.188 110.375H422.688C425.271 110.333 427.708 109.938 430 109.188C432.292 108.396 434.312 107.271 436.062 105.812C437.771 104.354 439.125 102.583 440.125 100.5C441.125 98.375 441.625 95.9375 441.625 93.1875C441.625 90.2708 441.146 87.7292 440.188 85.5625C439.229 83.3542 437.896 81.5 436.188 80C434.479 78.5417 432.438 77.4375 430.062 76.6875C427.729 75.9375 425.167 75.5417 422.375 75.5H407.188V110.375ZM472.125 66H527.125V76.0625H505.312V147H527.125V157H472.125V147H493.438V76.0625H472.125V66ZM673.5 134C673.5 131.208 672.854 128.854 671.562 126.938C670.312 125.021 668.688 123.396 666.688 122.062C664.688 120.771 662.479 119.688 660.062 118.812C657.688 117.938 655.396 117.146 653.188 116.438C649.979 115.396 646.708 114.146 643.375 112.688C640.083 111.188 637.083 109.396 634.375 107.312C631.625 105.188 629.375 102.688 627.625 99.8125C625.917 96.8958 625.062 93.4792 625.062 89.5625C625.062 85.6458 625.917 82.1458 627.625 79.0625C629.375 75.9792 631.646 73.375 634.438 71.25C637.229 69.125 640.396 67.5208 643.938 66.4375C647.479 65.3125 651.042 64.75 654.625 64.75C658.583 64.75 662.396 65.4167 666.062 66.75C669.729 68.0417 672.979 69.875 675.812 72.25C678.646 74.625 680.917 77.5 682.625 80.875C684.333 84.25 685.229 88.0208 685.312 92.1875H673.438C673.104 89.5625 672.458 87.1875 671.5 85.0625C670.542 82.8958 669.271 81.0417 667.688 79.5C666.104 77.9583 664.208 76.7708 662 75.9375C659.833 75.0625 657.375 74.625 654.625 74.625C652.417 74.625 650.25 74.9375 648.125 75.5625C646.042 76.1875 644.188 77.125 642.562 78.375C640.896 79.625 639.562 81.1667 638.562 83C637.604 84.8333 637.125 86.9583 637.125 89.375C637.167 92 637.833 94.2292 639.125 96.0625C640.417 97.8542 642.062 99.375 644.062 100.625C646.021 101.875 648.146 102.917 650.438 103.75C652.771 104.583 654.958 105.312 657 105.938C660.375 106.979 663.75 108.25 667.125 109.75C670.5 111.208 673.583 113.083 676.375 115.375C679.125 117.5 681.333 120.104 683 123.188C684.708 126.271 685.562 129.833 685.562 133.875C685.562 137.958 684.646 141.521 682.812 144.562C681.021 147.604 678.688 150.125 675.812 152.125C672.938 154.167 669.688 155.708 666.062 156.75C662.438 157.75 658.812 158.25 655.188 158.25C650.854 158.25 646.583 157.521 642.375 156.062C638.208 154.604 634.583 152.5 631.5 149.75C628.75 147.375 626.562 144.604 624.938 141.438C623.354 138.229 622.5 134.667 622.375 130.75H634.188C634.562 133.583 635.333 136.104 636.5 138.312C637.667 140.479 639.167 142.312 641 143.812C642.833 145.354 644.938 146.521 647.312 147.312C649.729 148.062 652.354 148.438 655.188 148.438C657.438 148.438 659.646 148.167 661.812 147.625C664.021 147.042 665.979 146.146 667.688 144.938C669.396 143.771 670.792 142.292 671.875 140.5C672.958 138.667 673.5 136.5 673.5 134ZM759.812 157H748.875V114.938H711.562V157H700.688V66H711.562V105.125H748.875V66H759.812V157ZM779.625 66H834.625V76.0625H812.812V147H834.625V157H779.625V147H800.938V76.0625H779.625V66ZM878.312 114.75L868.188 126.25V157H856.375V66H868.188V110.438L877 99.4375L903.688 66H917.75L885.938 105.812L919.875 157H905.812L878.312 114.75ZM981 134C981 131.208 980.354 128.854 979.062 126.938C977.812 125.021 976.188 123.396 974.188 122.062C972.188 120.771 969.979 119.688 967.562 118.812C965.188 117.938 962.896 117.146 960.688 116.438C957.479 115.396 954.208 114.146 950.875 112.688C947.583 111.188 944.583 109.396 941.875 107.312C939.125 105.188 936.875 102.688 935.125 99.8125C933.417 96.8958 932.562 93.4792 932.562 89.5625C932.562 85.6458 933.417 82.1458 935.125 79.0625C936.875 75.9792 939.146 73.375 941.938 71.25C944.729 69.125 947.896 67.5208 951.438 66.4375C954.979 65.3125 958.542 64.75 962.125 64.75C966.083 64.75 969.896 65.4167 973.562 66.75C977.229 68.0417 980.479 69.875 983.312 72.25C986.146 74.625 988.417 77.5 990.125 80.875C991.833 84.25 992.729 88.0208 992.812 92.1875H980.938C980.604 89.5625 979.958 87.1875 979 85.0625C978.042 82.8958 976.771 81.0417 975.188 79.5C973.604 77.9583 971.708 76.7708 969.5 75.9375C967.333 75.0625 964.875 74.625 962.125 74.625C959.917 74.625 957.75 74.9375 955.625 75.5625C953.542 76.1875 951.688 77.125 950.062 78.375C948.396 79.625 947.062 81.1667 946.062 83C945.104 84.8333 944.625 86.9583 944.625 89.375C944.667 92 945.333 94.2292 946.625 96.0625C947.917 97.8542 949.562 99.375 951.562 100.625C953.521 101.875 955.646 102.917 957.938 103.75C960.271 104.583 962.458 105.312 964.5 105.938C967.875 106.979 971.25 108.25 974.625 109.75C978 111.208 981.083 113.083 983.875 115.375C986.625 117.5 988.833 120.104 990.5 123.188C992.208 126.271 993.062 129.833 993.062 133.875C993.062 137.958 992.146 141.521 990.312 144.562C988.521 147.604 986.188 150.125 983.312 152.125C980.438 154.167 977.188 155.708 973.562 156.75C969.938 157.75 966.312 158.25 962.688 158.25C958.354 158.25 954.083 157.521 949.875 156.062C945.708 154.604 942.083 152.5 939 149.75C936.25 147.375 934.062 144.604 932.438 141.438C930.854 138.229 930 134.667 929.875 130.75H941.688C942.062 133.583 942.833 136.104 944 138.312C945.167 140.479 946.667 142.312 948.5 143.812C950.333 145.354 952.438 146.521 954.812 147.312C957.229 148.062 959.854 148.438 962.688 148.438C964.938 148.438 967.146 148.167 969.312 147.625C971.521 147.042 973.479 146.146 975.188 144.938C976.896 143.771 978.292 142.292 979.375 140.5C980.458 138.667 981 136.5 981 134ZM1067.31 157H1056.38V114.938H1019.06V157H1008.19V66H1019.06V105.125H1056.38V66H1067.31V157ZM1130.56 133.438H1100.19L1092.88 157H1081.31L1110.69 66H1120.38L1149.25 157H1137.75L1130.56 133.438ZM1103.31 123.375H1127.5L1115.5 83.875L1103.31 123.375ZM1297.88 157H1286.12L1250.81 89L1250.62 157H1238.94V66H1250.69L1286 133.875L1286.19 66H1297.88V157ZM1317.75 66H1372.75V76.0625H1350.94V147H1372.75V157H1317.75V147H1339.06V76.0625H1317.75V66ZM1416.44 114.75L1406.31 126.25V157H1394.5V66H1406.31V110.438L1415.12 99.4375L1441.81 66H1455.88L1424.06 105.812L1458 157H1443.94L1416.44 114.75ZM1521.56 114.938H1483.56V147.188H1527.88V157H1472V66H1527.31V75.875H1483.56V105.125H1521.56V114.938ZM1609.75 75.875H1581.62V157H1570.38V75.875H1542.25V66H1609.75V75.875ZM1668.69 133.438H1638.31L1631 157H1619.44L1648.81 66H1658.5L1687.38 157H1675.88L1668.69 133.438ZM1641.44 123.375H1665.62L1653.62 83.875L1641.44 123.375ZM1759.12 157H1747.38L1712.06 89L1711.88 157H1700.19V66H1711.94L1747.25 133.875L1747.44 66H1759.12V157Z" fill="#C10007"/>
<path d="M8.15625 213.75H49.4062V221.297H33.0469V274.5H49.4062V282H8.15625V274.5H24.1406V221.297H8.15625V213.75ZM108.562 282H99.75L73.2656 231L73.125 282H64.3594V213.75H73.1719L99.6562 264.656L99.7969 213.75H108.562V282ZM169.5 221.156H148.406V282H139.969V221.156H118.875V213.75H169.5V221.156ZM218.672 250.453H190.172V274.641H223.406V282H181.5V213.75H222.984V221.156H190.172V243.094H218.672V250.453ZM261.375 254.156H247.734V282H239.109V213.75H259.125C262.312 213.812 265.312 214.266 268.125 215.109C270.938 215.953 273.406 217.219 275.531 218.906C277.625 220.594 279.266 222.719 280.453 225.281C281.672 227.812 282.281 230.797 282.281 234.234C282.281 236.453 281.953 238.484 281.297 240.328C280.672 242.172 279.797 243.844 278.672 245.344C277.547 246.844 276.203 248.172 274.641 249.328C273.078 250.484 271.359 251.469 269.484 252.281L283.969 281.438L283.922 282H274.781L261.375 254.156ZM247.734 247.031H259.359C261.297 247 263.125 246.703 264.844 246.141C266.562 245.547 268.078 244.703 269.391 243.609C270.672 242.516 271.688 241.188 272.438 239.625C273.188 238.031 273.562 236.203 273.562 234.141C273.562 231.953 273.203 230.047 272.484 228.422C271.766 226.766 270.766 225.375 269.484 224.25C268.203 223.156 266.672 222.328 264.891 221.766C263.141 221.203 261.219 220.906 259.125 220.875H247.734V247.031ZM398.297 261.469C397.891 264.625 397.078 267.531 395.859 270.188C394.641 272.812 393.062 275.062 391.125 276.938C389.156 278.844 386.828 280.328 384.141 281.391C381.484 282.422 378.516 282.938 375.234 282.938C372.422 282.938 369.859 282.547 367.547 281.766C365.266 280.953 363.234 279.844 361.453 278.438C359.641 277.031 358.078 275.375 356.766 273.469C355.484 271.562 354.422 269.484 353.578 267.234C352.703 264.984 352.047 262.625 351.609 260.156C351.203 257.688 350.984 255.188 350.953 252.656V243.141C350.984 240.609 351.203 238.109 351.609 235.641C352.047 233.172 352.703 230.812 353.578 228.562C354.422 226.312 355.484 224.234 356.766 222.328C358.078 220.391 359.641 218.719 361.453 217.312C363.234 215.906 365.266 214.812 367.547 214.031C369.828 213.219 372.391 212.812 375.234 212.812C378.641 212.812 381.688 213.344 384.375 214.406C387.062 215.438 389.375 216.906 391.312 218.812C393.25 220.75 394.797 223.062 395.953 225.75C397.141 228.438 397.922 231.406 398.297 234.656H389.625C389.344 232.594 388.859 230.672 388.172 228.891C387.484 227.109 386.562 225.547 385.406 224.203C384.25 222.859 382.828 221.812 381.141 221.062C379.484 220.281 377.516 219.891 375.234 219.891C373.172 219.891 371.344 220.234 369.75 220.922C368.188 221.578 366.844 222.484 365.719 223.641C364.562 224.797 363.594 226.141 362.812 227.672C362.062 229.203 361.453 230.828 360.984 232.547C360.516 234.266 360.172 236.031 359.953 237.844C359.766 239.625 359.672 241.359 359.672 243.047V252.656C359.672 254.344 359.766 256.094 359.953 257.906C360.172 259.688 360.516 261.438 360.984 263.156C361.453 264.906 362.062 266.547 362.812 268.078C363.562 269.609 364.516 270.953 365.672 272.109C366.828 273.297 368.188 274.234 369.75 274.922C371.312 275.578 373.141 275.906 375.234 275.906C377.516 275.906 379.484 275.547 381.141 274.828C382.828 274.109 384.25 273.094 385.406 271.781C386.562 270.5 387.484 268.984 388.172 267.234C388.859 265.453 389.344 263.531 389.625 261.469H398.297ZM456.141 251.812C456.109 254.25 455.891 256.719 455.484 259.219C455.109 261.688 454.516 264.078 453.703 266.391C452.891 268.703 451.844 270.859 450.562 272.859C449.312 274.859 447.812 276.609 446.062 278.109C444.312 279.609 442.297 280.797 440.016 281.672C437.766 282.516 435.234 282.938 432.422 282.938C429.609 282.938 427.062 282.516 424.781 281.672C422.531 280.797 420.531 279.609 418.781 278.109C417.031 276.609 415.516 274.859 414.234 272.859C412.953 270.828 411.906 268.656 411.094 266.344C410.25 264.031 409.625 261.641 409.219 259.172C408.812 256.703 408.594 254.25 408.562 251.812V244.031C408.594 241.594 408.797 239.141 409.172 236.672C409.578 234.172 410.203 231.766 411.047 229.453C411.859 227.141 412.891 224.984 414.141 222.984C415.422 220.953 416.938 219.172 418.688 217.641C420.438 216.141 422.438 214.969 424.688 214.125C426.969 213.25 429.516 212.812 432.328 212.812C435.141 212.812 437.688 213.25 439.969 214.125C442.25 214.969 444.266 216.141 446.016 217.641C447.766 219.141 449.266 220.906 450.516 222.938C451.797 224.938 452.859 227.094 453.703 229.406C454.516 231.719 455.109 234.125 455.484 236.625C455.891 239.125 456.109 241.594 456.141 244.031V251.812ZM447.562 243.938C447.531 242.312 447.422 240.625 447.234 238.875C447.047 237.094 446.734 235.328 446.297 233.578C445.828 231.859 445.219 230.219 444.469 228.656C443.719 227.062 442.781 225.656 441.656 224.438C440.531 223.25 439.203 222.312 437.672 221.625C436.141 220.906 434.359 220.547 432.328 220.547C430.328 220.547 428.562 220.906 427.031 221.625C425.5 222.344 424.172 223.297 423.047 224.484C421.922 225.703 420.984 227.109 420.234 228.703C419.484 230.266 418.891 231.906 418.453 233.625C417.984 235.375 417.641 237.141 417.422 238.922C417.234 240.672 417.125 242.344 417.094 243.938V251.812C417.125 253.406 417.234 255.094 417.422 256.875C417.641 258.656 417.984 260.406 418.453 262.125C418.922 263.875 419.531 265.547 420.281 267.141C421.031 268.734 421.969 270.125 423.094 271.312C424.219 272.531 425.547 273.5 427.078 274.219C428.609 274.938 430.391 275.297 432.422 275.297C434.453 275.297 436.234 274.938 437.766 274.219C439.328 273.5 440.672 272.531 441.797 271.312C442.891 270.125 443.797 268.75 444.516 267.188C445.266 265.594 445.875 263.922 446.344 262.172C446.781 260.453 447.078 258.703 447.234 256.922C447.422 255.141 447.531 253.438 447.562 251.812V243.938ZM479.203 274.641H512.578V282H470.531V213.75H479.203V274.641ZM536.859 274.641H570.234V282H528.188V213.75H536.859V274.641ZM622.266 250.453H593.766V274.641H627V282H585.094V213.75H626.578V221.156H593.766V243.094H622.266V250.453ZM686.531 273.047C685.469 274.297 684.344 275.438 683.156 276.469C681.969 277.469 680.734 278.344 679.453 279.094C677.266 280.406 674.906 281.375 672.375 282C669.844 282.656 667.188 282.969 664.406 282.938C661.594 282.906 659 282.484 656.625 281.672C654.281 280.828 652.172 279.672 650.297 278.203C648.422 276.766 646.781 275.062 645.375 273.094C643.969 271.125 642.797 268.984 641.859 266.672C640.891 264.391 640.156 262 639.656 259.5C639.188 256.969 638.938 254.422 638.906 251.859V243.938C638.938 241.406 639.156 238.891 639.562 236.391C640 233.859 640.656 231.438 641.531 229.125C642.406 226.812 643.5 224.672 644.812 222.703C646.125 220.703 647.703 218.969 649.547 217.5C651.359 216.062 653.422 214.922 655.734 214.078C658.047 213.234 660.641 212.812 663.516 212.812C666.703 212.812 669.641 213.312 672.328 214.312C675.016 215.281 677.359 216.672 679.359 218.484C681.359 220.328 682.969 222.547 684.188 225.141C685.406 227.703 686.156 230.578 686.438 233.766H677.859C677.516 231.797 676.984 229.984 676.266 228.328C675.547 226.641 674.609 225.203 673.453 224.016C672.266 222.828 670.859 221.906 669.234 221.25C667.609 220.562 665.719 220.219 663.562 220.219C661.5 220.219 659.672 220.578 658.078 221.297C656.484 221.984 655.094 222.922 653.906 224.109C652.719 225.297 651.734 226.688 650.953 228.281C650.172 229.844 649.531 231.5 649.031 233.25C648.531 235 648.172 236.781 647.953 238.594C647.734 240.406 647.625 242.156 647.625 243.844V251.859C647.656 253.578 647.797 255.359 648.047 257.203C648.328 259.016 648.75 260.797 649.312 262.547C649.875 264.297 650.594 265.953 651.469 267.516C652.344 269.078 653.406 270.453 654.656 271.641C655.875 272.828 657.297 273.781 658.922 274.5C660.547 275.188 662.391 275.547 664.453 275.578C665.641 275.609 666.875 275.562 668.156 275.438C669.469 275.312 670.734 275.062 671.953 274.688C673.172 274.312 674.312 273.812 675.375 273.188C676.438 272.531 677.328 271.688 678.047 270.656L678.141 255.328H664.266V248.016H686.391L686.531 273.047ZM737.578 250.453H709.078V274.641H742.312V282H700.406V213.75H741.891V221.156H709.078V243.094H737.578V250.453Z" fill="black"/>
</svg>
