<svg width="1780" height="332" viewBox="0 0 1780 332" fill="none" xmlns="http://www.w3.org/2000/svg">
<path d="M40.875 155.5C33.9583 155.5 27.9167 154.354 22.75 152.062C17.625 149.729 13.4792 146.375 10.3125 142C7.14583 137.583 5.04167 132.271 4 126.062L17.375 123.312C17.6667 130.688 19.8125 136.354 23.8125 140.312C27.8125 144.271 33.3958 146.25 40.5625 146.25C44.8958 146.25 48.5625 145.542 51.5625 144.125C54.6042 142.708 56.9167 140.708 58.5 138.125C60.125 135.542 60.9375 132.5 60.9375 129C60.9375 124.333 59.5833 120.875 56.875 118.625C54.2083 116.333 50.5417 114.667 45.875 113.625L34.125 111C31.9583 110.5 29.4375 109.812 26.5625 108.938C23.7292 108.062 20.9792 106.771 18.3125 105.062C15.6458 103.354 13.4167 101.042 11.625 98.125C9.875 95.2083 9 91.4792 9 86.9375C9 81.1458 10.4792 76.4583 13.4375 72.875C16.4375 69.2917 20.3125 66.6667 25.0625 65C29.8542 63.3333 34.9375 62.5 40.3125 62.5C46.5208 62.5 51.8333 63.5 56.25 65.5C60.7083 67.4583 64.2917 70.25 67 73.875C69.75 77.5 71.6042 81.8333 72.5625 86.875L59.375 89.625C59.0417 85.7917 58.1042 82.5625 56.5625 79.9375C55.0208 77.2708 52.8542 75.25 50.0625 73.875C47.2708 72.4583 43.7917 71.75 39.625 71.75C36.25 71.75 33.0833 72.25 30.125 73.25C27.2083 74.25 24.8333 75.8125 23 77.9375C21.1667 80.0625 20.25 82.8333 20.25 86.25C20.25 89.8333 21.4792 92.7083 23.9375 94.875C26.4375 97 30.5833 98.7292 36.375 100.062L48.25 102.812C52.4583 103.771 56.4375 105.208 60.1875 107.125C63.9375 109.042 66.9792 111.729 69.3125 115.188C71.6458 118.604 72.8125 123.125 72.8125 128.75C72.8125 134.375 71.5208 139.188 68.9375 143.188C66.3958 147.188 62.7292 150.25 57.9375 152.375C53.1875 154.458 47.5 155.5 40.875 155.5ZM80 154L118 64H129.25L167.125 154H155.125L123.625 75.75L92 154H80ZM99.5 124.5V115.25H147.625V124.5H99.5ZM194 154L159.75 64H171.75L201.375 146.25H199L228.375 64H240.375L206.125 154H194ZM248.562 154V145.25H260.5V72.75H248.562V64H283.688V72.75H271.75V145.25H283.688V154H248.562ZM324.25 154V73.25H292.062V64H367.812V73.25H335.5V154H324.25ZM380.5 154V64H414.812C435.646 64 446.062 71.8958 446.062 87.6875C446.062 103.604 435.583 111.562 414.625 111.562H391.75V154H380.5ZM433.312 154L409.438 108.438H422.188L446.062 154H433.312ZM391.75 102.312H414.812C421.146 102.312 426.021 101.083 429.438 98.625C432.854 96.125 434.562 92.5417 434.562 87.875C434.562 83.1667 432.854 79.5625 429.438 77.0625C426.021 74.5208 421.146 73.25 414.812 73.25H391.75V102.312ZM456.312 154V145.25H468.25V72.75H456.312V64H491.438V72.75H479.5V145.25H491.438V154H456.312ZM569.875 155.5C562.958 155.5 556.917 154.354 551.75 152.062C546.625 149.729 542.479 146.375 539.312 142C536.146 137.583 534.042 132.271 533 126.062L546.375 123.312C546.667 130.688 548.812 136.354 552.812 140.312C556.812 144.271 562.396 146.25 569.562 146.25C573.896 146.25 577.562 145.542 580.562 144.125C583.604 142.708 585.917 140.708 587.5 138.125C589.125 135.542 589.938 132.5 589.938 129C589.938 124.333 588.583 120.875 585.875 118.625C583.208 116.333 579.542 114.667 574.875 113.625L563.125 111C560.958 110.5 558.438 109.812 555.562 108.938C552.729 108.062 549.979 106.771 547.312 105.062C544.646 103.354 542.417 101.042 540.625 98.125C538.875 95.2083 538 91.4792 538 86.9375C538 81.1458 539.479 76.4583 542.438 72.875C545.438 69.2917 549.312 66.6667 554.062 65C558.854 63.3333 563.938 62.5 569.312 62.5C575.521 62.5 580.833 63.5 585.25 65.5C589.708 67.4583 593.292 70.25 596 73.875C598.75 77.5 600.604 81.8333 601.562 86.875L588.375 89.625C588.042 85.7917 587.104 82.5625 585.562 79.9375C584.021 77.2708 581.854 75.25 579.062 73.875C576.271 72.4583 572.792 71.75 568.625 71.75C565.25 71.75 562.083 72.25 559.125 73.25C556.208 74.25 553.833 75.8125 552 77.9375C550.167 80.0625 549.25 82.8333 549.25 86.25C549.25 89.8333 550.479 92.7083 552.938 94.875C555.438 97 559.583 98.7292 565.375 100.062L577.25 102.812C581.458 103.771 585.438 105.208 589.188 107.125C592.938 109.042 595.979 111.729 598.312 115.188C600.646 118.604 601.812 123.125 601.812 128.75C601.812 134.375 600.521 139.188 597.938 143.188C595.396 147.188 591.729 150.25 586.938 152.375C582.188 154.458 576.5 155.5 569.875 155.5ZM618.5 154V64H629.75V102.875H678.875V64H690.125V154H678.875V112.125H629.75V154H618.5ZM705.812 154V145.25H717.75V72.75H705.812V64H740.938V72.75H729V145.25H740.938V154H705.812ZM756.625 154V64H767.875V105.75L811.688 64H827L792.5 96.9375L827.75 154H814.125L783.875 105.188L767.875 120.438V154H756.625ZM869.625 155.5C862.708 155.5 856.667 154.354 851.5 152.062C846.375 149.729 842.229 146.375 839.062 142C835.896 137.583 833.792 132.271 832.75 126.062L846.125 123.312C846.417 130.688 848.562 136.354 852.562 140.312C856.562 144.271 862.146 146.25 869.312 146.25C873.646 146.25 877.312 145.542 880.312 144.125C883.354 142.708 885.667 140.708 887.25 138.125C888.875 135.542 889.688 132.5 889.688 129C889.688 124.333 888.333 120.875 885.625 118.625C882.958 116.333 879.292 114.667 874.625 113.625L862.875 111C860.708 110.5 858.188 109.812 855.312 108.938C852.479 108.062 849.729 106.771 847.062 105.062C844.396 103.354 842.167 101.042 840.375 98.125C838.625 95.2083 837.75 91.4792 837.75 86.9375C837.75 81.1458 839.229 76.4583 842.188 72.875C845.188 69.2917 849.062 66.6667 853.812 65C858.604 63.3333 863.688 62.5 869.062 62.5C875.271 62.5 880.583 63.5 885 65.5C889.458 67.4583 893.042 70.25 895.75 73.875C898.5 77.5 900.354 81.8333 901.312 86.875L888.125 89.625C887.792 85.7917 886.854 82.5625 885.312 79.9375C883.771 77.2708 881.604 75.25 878.812 73.875C876.021 72.4583 872.542 71.75 868.375 71.75C865 71.75 861.833 72.25 858.875 73.25C855.958 74.25 853.583 75.8125 851.75 77.9375C849.917 80.0625 849 82.8333 849 86.25C849 89.8333 850.229 92.7083 852.688 94.875C855.188 97 859.333 98.7292 865.125 100.062L877 102.812C881.208 103.771 885.188 105.208 888.938 107.125C892.688 109.042 895.729 111.729 898.062 115.188C900.396 118.604 901.562 123.125 901.562 128.75C901.562 134.375 900.271 139.188 897.688 143.188C895.146 147.188 891.479 150.25 886.688 152.375C881.938 154.458 876.25 155.5 869.625 155.5ZM918.25 154V64H929.5V102.875H978.625V64H989.875V154H978.625V112.125H929.5V154H918.25ZM1001.38 154L1039.38 64H1050.62L1088.5 154H1076.5L1045 75.75L1013.38 154H1001.38ZM1020.88 124.5V115.25H1069V124.5H1020.88ZM1132.5 154V64H1148.12L1196.31 144.438L1194.38 144.812V64H1205.25V154H1190.88L1141.44 73.125L1143.38 72.6875V154H1132.5ZM1220.94 154V145.25H1232.88V72.75H1220.94V64H1256.06V72.75H1244.12V145.25H1256.06V154H1220.94ZM1271.75 154V64H1283V105.75L1326.81 64H1342.12L1307.62 96.9375L1342.88 154H1329.25L1299 105.188L1283 120.438V154H1271.75ZM1356.25 154V64H1415.56V73.25H1367.5V101.5H1409.56V110.75H1367.5V144.75H1416.44V154H1356.25ZM1456.5 154V73.25H1424.31V64H1500.06V73.25H1467.75V154H1456.5ZM1490.12 154L1528.12 64H1539.38L1577.25 154H1565.25L1533.75 75.75L1502.12 154H1490.12ZM1509.62 124.5V115.25H1557.75V124.5H1509.62ZM1588.75 154V64H1604.38L1652.56 144.438L1650.62 144.812V64H1661.5V154H1647.12L1597.69 73.125L1599.62 72.6875V154H1588.75Z" fill="#C10007"/>
<path d="M3.79688 279V272.438H12.75V218.062H3.79688V211.5H30.1406V218.062H21.1875V272.438H30.1406V279H3.79688ZM41.9062 279V211.5H53.625L89.7656 271.828L88.3125 272.109V211.5H96.4688V279H85.6875L48.6094 218.344L50.0625 218.016V279H41.9062ZM130.125 279V218.438H105.984V211.5H162.797V218.438H138.562V279H130.125ZM172.312 279V211.5H216.797V218.438H180.75V239.625H212.297V246.562H180.75V272.062H217.453V279H172.312ZM228.562 279V211.5H254.297C269.922 211.5 277.734 217.422 277.734 229.266C277.734 241.203 269.875 247.172 254.156 247.172H237V279H228.562ZM268.172 279L250.266 244.828H259.828L277.734 279H268.172ZM237 240.234H254.297C259.047 240.234 262.703 239.312 265.266 237.469C267.828 235.594 269.109 232.906 269.109 229.406C269.109 225.875 267.828 223.172 265.266 221.297C262.703 219.391 259.047 218.438 254.297 218.438H237V240.234ZM342.141 280.125C335.766 280.125 330.172 278.625 325.359 275.625C320.578 272.625 316.859 268.484 314.203 263.203C311.547 257.891 310.219 251.797 310.219 244.922C310.219 238.234 311.484 232.297 314.016 227.109C316.578 221.922 320.234 217.844 324.984 214.875C329.734 211.875 335.422 210.375 342.047 210.375C348.766 210.375 354.641 212.109 359.672 215.578C364.703 219.047 368.047 224.328 369.703 231.422L360.75 233.531C359.406 227.969 357.062 223.875 353.719 221.25C350.406 218.625 346.469 217.312 341.906 217.312C337.156 217.312 333.094 218.516 329.719 220.922C326.375 223.328 323.812 226.625 322.031 230.812C320.25 235 319.359 239.797 319.359 245.203C319.359 250.703 320.266 255.562 322.078 259.781C323.922 264 326.5 267.297 329.812 269.672C333.125 272.016 337.031 273.188 341.531 273.188C346.438 273.188 350.672 271.703 354.234 268.734C357.797 265.766 360.062 261.641 361.031 256.359L370.266 258.891C368.422 265.828 364.969 271.109 359.906 274.734C354.844 278.328 348.922 280.125 342.141 280.125ZM411.188 280.125C404.469 280.125 398.656 278.719 393.75 275.906C388.875 273.062 385.109 269.031 382.453 263.812C379.828 258.594 378.516 252.406 378.516 245.25C378.516 238.062 379.828 231.875 382.453 226.688C385.109 221.469 388.875 217.453 393.75 214.641C398.656 211.797 404.469 210.375 411.188 210.375C417.906 210.375 423.703 211.797 428.578 214.641C433.484 217.453 437.25 221.469 439.875 226.688C442.531 231.875 443.859 238.062 443.859 245.25C443.859 252.406 442.531 258.594 439.875 263.812C437.25 269.031 433.484 273.062 428.578 275.906C423.703 278.719 417.906 280.125 411.188 280.125ZM411.188 273.188C416.031 273.188 420.203 272.062 423.703 269.812C427.234 267.531 429.953 264.297 431.859 260.109C433.766 255.922 434.719 250.969 434.719 245.25C434.719 239.5 433.766 234.547 431.859 230.391C429.953 226.203 427.234 222.984 423.703 220.734C420.203 218.453 416.031 217.312 411.188 217.312C406.375 217.312 402.203 218.453 398.672 220.734C395.141 222.984 392.422 226.203 390.516 230.391C388.609 234.547 387.656 239.5 387.656 245.25C387.656 250.969 388.609 255.922 390.516 260.109C392.422 264.297 395.141 267.531 398.672 269.812C402.203 272.062 406.375 273.188 411.188 273.188ZM455.812 279V211.5H464.25V272.062H498V279H455.812ZM506.156 279V211.5H514.594V272.062H548.344V279H506.156ZM556.5 279V211.5H600.984V218.438H564.938V239.625H596.484V246.562H564.938V272.062H601.641V279H556.5ZM640.641 280.125C633.234 280.125 627.047 278.641 622.078 275.672C617.141 272.672 613.422 268.547 610.922 263.297C608.422 258.047 607.172 252.062 607.172 245.344C607.172 238.469 608.422 232.406 610.922 227.156C613.453 221.906 617.094 217.797 621.844 214.828C626.594 211.859 632.297 210.375 638.953 210.375C643.484 210.375 647.641 211.141 651.422 212.672C655.234 214.172 658.469 216.453 661.125 219.516C663.781 222.578 665.641 226.438 666.703 231.094L657.516 233.203C656.453 227.703 654.25 223.688 650.906 221.156C647.562 218.594 643.562 217.312 638.906 217.312C634.188 217.312 630.141 218.5 626.766 220.875C623.391 223.25 620.797 226.578 618.984 230.859C617.203 235.109 616.312 240.078 616.312 245.766C616.312 250.797 617.094 255.391 618.656 259.547C620.25 263.703 622.781 267.016 626.25 269.484C629.719 271.953 634.281 273.188 639.938 273.188C643.406 273.188 646.797 272.656 650.109 271.594C653.453 270.5 656.328 268.453 658.734 265.453V249.188L661.125 251.625H636.047V244.5H666.609V268.125C664.203 271.562 661.453 274.141 658.359 275.859C655.297 277.578 652.203 278.719 649.078 279.281C645.984 279.844 643.172 280.125 640.641 280.125ZM680.156 279V211.5H724.641V218.438H688.594V239.625H720.141V246.562H688.594V272.062H725.297V279H680.156Z" fill="black"/>
</svg>
