<svg width="1780" height="332" viewBox="0 0 1780 332" fill="none" xmlns="http://www.w3.org/2000/svg">
<path d="M9.375 148.875V138.25C18.75 141.583 28.875 143.25 39.75 143.25C55.125 143.25 62.8125 137.625 62.8125 126.375C62.8125 116.792 57.1458 112 45.8125 112H34.3125C15.6042 112 6.25 103.875 6.25 87.625C6.25 70.5417 18.2292 62 42.1875 62C52.6042 62 62.2917 63.25 71.25 65.75V76.375C62.2917 73.0417 52.6042 71.375 42.1875 71.375C25.9375 71.375 17.8125 76.7917 17.8125 87.625C17.8125 97.2083 23.3125 102 34.3125 102H45.8125C64.8542 102 74.375 110.125 74.375 126.375C74.375 143.875 62.8333 152.625 39.75 152.625C28.875 152.625 18.75 151.375 9.375 148.875ZM94.1875 152H82.1875L120.125 62.625H132.938L171.062 152H158.25L146.688 123.875H117.125L120.312 114.5H142.812L126.125 74L94.1875 152ZM263.062 62.625L225.125 152H212.312L174.188 62.625H186.375L219.125 140L251.062 62.625H263.062ZM288.688 62.625V152H277.125V62.625H288.688ZM372.188 62.625V72H344.062V152H332.5V72H304.375V62.625H372.188ZM386 152V62.625H424.125C441.125 62.625 449.625 69.7708 449.625 84.0625C449.625 95.6875 441.312 104.292 424.688 109.875L455.375 152H440.125L411.688 111.812V104.25C428.771 101.542 437.312 94.9792 437.312 84.5625C437.312 76.3125 432.562 72.1875 423.062 72.1875H397.562V152H386ZM481.062 62.625V152H469.5V62.625H481.062ZM534.25 148.875V138.25C543.625 141.583 553.75 143.25 564.625 143.25C580 143.25 587.688 137.625 587.688 126.375C587.688 116.792 582.021 112 570.688 112H559.188C540.479 112 531.125 103.875 531.125 87.625C531.125 70.5417 543.104 62 567.062 62C577.479 62 587.167 63.25 596.125 65.75V76.375C587.167 73.0417 577.479 71.375 567.062 71.375C550.812 71.375 542.688 76.7917 542.688 87.625C542.688 97.2083 548.188 102 559.188 102H570.688C589.729 102 599.25 110.125 599.25 126.375C599.25 143.875 587.708 152.625 564.625 152.625C553.75 152.625 543.625 151.375 534.25 148.875ZM616.125 152V62.625H627.688V102H680.5V62.625H692.062V152H680.5V111.375H627.688V152H616.125ZM726.812 62.625V152H715.25V62.625H726.812ZM761.562 62.625V152H750V62.625H761.562ZM824.438 62.625L784.188 104.812L825.312 152H809.25L772.812 109V102L809.812 62.625H824.438ZM836.25 148.875V138.25C845.625 141.583 855.75 143.25 866.625 143.25C882 143.25 889.688 137.625 889.688 126.375C889.688 116.792 884.021 112 872.688 112H861.188C842.479 112 833.125 103.875 833.125 87.625C833.125 70.5417 845.104 62 869.062 62C879.479 62 889.167 63.25 898.125 65.75V76.375C889.167 73.0417 879.479 71.375 869.062 71.375C852.812 71.375 844.688 76.7917 844.688 87.625C844.688 97.2083 850.188 102 861.188 102H872.688C891.729 102 901.25 110.125 901.25 126.375C901.25 143.875 889.708 152.625 866.625 152.625C855.75 152.625 845.625 151.375 836.25 148.875ZM918.125 152V62.625H929.688V102H982.5V62.625H994.062V152H982.5V111.375H929.688V152H918.125ZM1018.31 152H1006.31L1044.25 62.625H1057.06L1095.19 152H1082.38L1070.81 123.875H1041.25L1044.44 114.5H1066.94L1050.25 74L1018.31 152ZM1138.62 152V62.625H1150.19L1204.88 134.625V62.625H1215.81V152H1204.25L1149.56 79.375V152H1138.62ZM1250.56 62.625V152H1239V62.625H1250.56ZM1285.31 62.625V152H1273.75V62.625H1285.31ZM1348.19 62.625L1307.94 104.812L1349.06 152H1333L1296.56 109V102L1333.56 62.625H1348.19ZM1419.69 62.625V72H1372.81V102H1417.5V111.375H1372.81V142.625H1420.62V152H1361.25V62.625H1419.69ZM1498.44 62.625V72H1470.31V152H1458.75V72H1430.62V62.625H1498.44ZM1515.19 152H1503.19L1541.12 62.625H1553.94L1592.06 152H1579.25L1567.69 123.875H1538.12L1541.31 114.5H1563.81L1547.12 74L1515.19 152ZM1604.25 152V62.625H1615.81L1670.5 134.625V62.625H1681.44V152H1669.88L1615.19 79.375V152H1604.25Z" fill="#C10007"/>
<path d="M18.0469 209.969V277H9.375V209.969H18.0469ZM35.4375 277V209.969H44.1094L85.125 263.969V209.969H93.3281V277H84.6562L43.6406 222.531V277H35.4375ZM154.547 209.969V217H133.453V277H124.781V217H103.688V209.969H154.547ZM208.734 209.969V217H173.578V239.5H207.094V246.531H173.578V269.969H209.438V277H164.906V209.969H208.734ZM222.562 277V209.969H251.156C263.906 209.969 270.281 215.328 270.281 226.047C270.281 234.766 264.047 241.219 251.578 245.406L274.594 277H263.156L241.828 246.859V241.188C254.641 239.156 261.047 234.234 261.047 226.422C261.047 220.234 257.484 217.141 250.359 217.141H231.234V277H222.562ZM357.844 274.656C352.062 276.531 345.812 277.469 339.094 277.469C315.656 277.469 303.938 265.828 303.938 242.547C303.938 220.516 315.656 209.5 339.094 209.5C345.812 209.5 352.062 210.438 357.844 212.312V219.812C352.062 217.625 346.125 216.531 340.031 216.531C321.75 216.531 312.609 225.203 312.609 242.547C312.609 261.141 321.75 270.438 340.031 270.438C346.125 270.438 352.062 269.344 357.844 267.156V274.656ZM378.984 243.297C378.984 261.391 387.156 270.438 403.5 270.438C419.5 270.438 427.5 261.391 427.5 243.297C427.5 225.453 419.5 216.531 403.5 216.531C387.156 216.531 378.984 225.453 378.984 243.297ZM369.844 243.578C369.844 220.859 381.062 209.5 403.5 209.5C425.594 209.5 436.641 220.859 436.641 243.578C436.641 266.172 425.594 277.469 403.5 277.469C381.062 277.469 369.844 266.172 369.844 243.578ZM458.953 209.969V269.969H494.016V277H450.281V209.969H458.953ZM513.047 209.969V269.969H548.109V277H504.375V209.969H513.047ZM602.297 209.969V217H567.141V239.5H600.656V246.531H567.141V269.969H603V277H558.469V209.969H602.297ZM666.75 274.375C661.344 276.438 655.516 277.469 649.266 277.469C624.984 277.469 612.844 265.828 612.844 242.547C612.844 220.516 624.562 209.5 648 209.5C654.719 209.5 660.969 210.438 666.75 212.312V219.812C660.969 217.625 655.031 216.531 648.938 216.531C630.656 216.531 621.516 225.203 621.516 242.547C621.516 261.141 630.516 270.438 648.516 270.438C651.391 270.438 654.578 270.062 658.078 269.312V246.531H666.75V274.375ZM724.922 209.969V217H689.766V239.5H723.281V246.531H689.766V269.969H725.625V277H681.094V209.969H724.922Z" fill="black"/>
</svg>
