<svg width="1780" height="332" viewBox="0 0 1780 332" fill="none" xmlns="http://www.w3.org/2000/svg">
<path d="M73.6875 97.5625C71.9792 96.8125 69.9792 96.0625 67.6875 95.3125C65.4375 94.5208 63.0625 93.8125 60.5625 93.1875C58.1042 92.5625 55.6042 92.0625 53.0625 91.6875C50.5208 91.2708 48.125 91.0625 45.875 91.0625C41.9583 91.0625 38.8958 91.5625 36.6875 92.5625C34.4792 93.5625 33.375 95.25 33.375 97.625C33.375 98.75 33.75 99.75 34.5 100.625C35.2917 101.458 36.3958 102.25 37.8125 103C39.2292 103.708 40.9167 104.417 42.875 105.125C44.875 105.792 47.0833 106.5 49.5 107.25L54.0625 108.688C57.8958 109.854 61.3333 111.271 64.375 112.938C67.4167 114.562 69.9792 116.5 72.0625 118.75C74.1875 120.958 75.8125 123.5 76.9375 126.375C78.0625 129.25 78.625 132.521 78.625 136.188C78.625 140.479 77.9375 144.396 76.5625 147.938C75.2292 151.438 73.125 154.438 70.25 156.938C67.375 159.438 63.6875 161.375 59.1875 162.75C54.7292 164.125 49.3542 164.812 43.0625 164.812C37.4792 164.812 31.9167 164.354 26.375 163.438C20.875 162.521 15.3125 160.917 9.6875 158.625V138C15.0625 140.75 20.2708 142.771 25.3125 144.062C30.3958 145.312 35.3958 145.938 40.3125 145.938C44.3542 145.938 47.2917 145.292 49.125 144C51 142.708 51.9375 140.917 51.9375 138.625C51.9375 137.25 51.5833 136.083 50.875 135.125C50.2083 134.125 49.1042 133.208 47.5625 132.375C46.0625 131.542 44.0833 130.708 41.625 129.875C39.1667 129 36.1875 128.021 32.6875 126.938C29.1875 125.896 25.9375 124.583 22.9375 123C19.9792 121.417 17.4167 119.521 15.25 117.312C13.0833 115.062 11.375 112.458 10.125 109.5C8.91667 106.542 8.3125 103.167 8.3125 99.375C8.3125 95.4583 9 91.875 10.375 88.625C11.75 85.375 13.8542 82.6042 16.6875 80.3125C19.5208 77.9792 23.1042 76.1667 27.4375 74.875C31.8125 73.5833 37 72.9375 43 72.9375C45.375 72.9375 47.8958 73.0417 50.5625 73.25C53.2292 73.4583 55.9375 73.7708 58.6875 74.1875C61.4792 74.6042 64.2292 75.1458 66.9375 75.8125C69.6458 76.4792 72.2083 77.2708 74.625 78.1875L73.6875 97.5625ZM173.688 163H140.312L136.188 144.188H114.25L110.312 163H87.75L110.25 74.625H149.375L173.688 163ZM125.5 88.375L116.938 129.562H134.812L127.438 88.375H125.5ZM166.25 74.625H200.25L213.125 140.562L228.25 74.625H250.25L226.312 163H188.25L166.25 74.625ZM261.562 74.625H289.562V163H261.562V74.625ZM320.875 163V95H300.875V74.625H369.312V95H348.875V163H320.875ZM380.625 74.625H420.375C426.667 74.625 432.208 75.4583 437 77.125C441.792 78.75 445.771 80.9167 448.938 83.625C452.146 86.2917 454.562 89.3333 456.188 92.75C457.812 96.125 458.625 99.5417 458.625 103C458.625 105.708 458.354 108.396 457.812 111.062C457.271 113.688 456.312 116.188 454.938 118.562C453.562 120.896 451.667 123.021 449.25 124.938C446.875 126.812 443.833 128.333 440.125 129.5C440.667 131.25 441.583 133.417 442.875 136C444.167 138.583 445.667 141.375 447.375 144.375C449.083 147.375 450.917 150.479 452.875 153.688C454.833 156.896 456.75 160 458.625 163H426.625C424.833 158.958 423 154.438 421.125 149.438C419.25 144.396 417.75 138.917 416.625 133H408.625V163H380.625V74.625ZM413.375 119C416.542 119 419.208 118.583 421.375 117.75C423.583 116.917 425.375 115.833 426.75 114.5C428.125 113.167 429.104 111.667 429.688 110C430.312 108.333 430.625 106.667 430.625 105C430.625 101.708 430.167 99.0208 429.25 96.9375C428.333 94.8542 427.083 93.2292 425.5 92.0625C423.917 90.8542 422.083 90.0417 420 89.625C417.917 89.2083 415.688 89 413.312 89H408.625V119H413.375ZM471.688 74.625H499.688V163H471.688V74.625ZM628.688 97.5625C626.979 96.8125 624.979 96.0625 622.688 95.3125C620.438 94.5208 618.062 93.8125 615.562 93.1875C613.104 92.5625 610.604 92.0625 608.062 91.6875C605.521 91.2708 603.125 91.0625 600.875 91.0625C596.958 91.0625 593.896 91.5625 591.688 92.5625C589.479 93.5625 588.375 95.25 588.375 97.625C588.375 98.75 588.75 99.75 589.5 100.625C590.292 101.458 591.396 102.25 592.812 103C594.229 103.708 595.917 104.417 597.875 105.125C599.875 105.792 602.083 106.5 604.5 107.25L609.062 108.688C612.896 109.854 616.333 111.271 619.375 112.938C622.417 114.562 624.979 116.5 627.062 118.75C629.188 120.958 630.812 123.5 631.938 126.375C633.062 129.25 633.625 132.521 633.625 136.188C633.625 140.479 632.938 144.396 631.562 147.938C630.229 151.438 628.125 154.438 625.25 156.938C622.375 159.438 618.688 161.375 614.188 162.75C609.729 164.125 604.354 164.812 598.062 164.812C592.479 164.812 586.917 164.354 581.375 163.438C575.875 162.521 570.312 160.917 564.688 158.625V138C570.062 140.75 575.271 142.771 580.312 144.062C585.396 145.312 590.396 145.938 595.312 145.938C599.354 145.938 602.292 145.292 604.125 144C606 142.708 606.938 140.917 606.938 138.625C606.938 137.25 606.583 136.083 605.875 135.125C605.208 134.125 604.104 133.208 602.562 132.375C601.062 131.542 599.083 130.708 596.625 129.875C594.167 129 591.188 128.021 587.688 126.938C584.188 125.896 580.938 124.583 577.938 123C574.979 121.417 572.417 119.521 570.25 117.312C568.083 115.062 566.375 112.458 565.125 109.5C563.917 106.542 563.312 103.167 563.312 99.375C563.312 95.4583 564 91.875 565.375 88.625C566.75 85.375 568.854 82.6042 571.688 80.3125C574.521 77.9792 578.104 76.1667 582.438 74.875C586.812 73.5833 592 72.9375 598 72.9375C600.375 72.9375 602.896 73.0417 605.562 73.25C608.229 73.4583 610.938 73.7708 613.688 74.1875C616.479 74.6042 619.229 75.1458 621.938 75.8125C624.646 76.4792 627.208 77.2708 629.625 78.1875L628.688 97.5625ZM652.812 74.625H680.812V109H706.812V74.625H734.812V163H706.812V127H680.812V163H652.812V74.625ZM756.188 74.625H784.188V163H756.188V74.625ZM833.5 125.625V163H805.5V74.625H833.5V113.562L853.5 74.625H886.188L860.875 117L886.188 163H853.5L835.5 121.375L833.5 125.625ZM957.062 97.5625C955.354 96.8125 953.354 96.0625 951.062 95.3125C948.812 94.5208 946.438 93.8125 943.938 93.1875C941.479 92.5625 938.979 92.0625 936.438 91.6875C933.896 91.2708 931.5 91.0625 929.25 91.0625C925.333 91.0625 922.271 91.5625 920.062 92.5625C917.854 93.5625 916.75 95.25 916.75 97.625C916.75 98.75 917.125 99.75 917.875 100.625C918.667 101.458 919.771 102.25 921.188 103C922.604 103.708 924.292 104.417 926.25 105.125C928.25 105.792 930.458 106.5 932.875 107.25L937.438 108.688C941.271 109.854 944.708 111.271 947.75 112.938C950.792 114.562 953.354 116.5 955.438 118.75C957.562 120.958 959.188 123.5 960.312 126.375C961.438 129.25 962 132.521 962 136.188C962 140.479 961.312 144.396 959.938 147.938C958.604 151.438 956.5 154.438 953.625 156.938C950.75 159.438 947.062 161.375 942.562 162.75C938.104 164.125 932.729 164.812 926.438 164.812C920.854 164.812 915.292 164.354 909.75 163.438C904.25 162.521 898.688 160.917 893.062 158.625V138C898.438 140.75 903.646 142.771 908.688 144.062C913.771 145.312 918.771 145.938 923.688 145.938C927.729 145.938 930.667 145.292 932.5 144C934.375 142.708 935.312 140.917 935.312 138.625C935.312 137.25 934.958 136.083 934.25 135.125C933.583 134.125 932.479 133.208 930.938 132.375C929.438 131.542 927.458 130.708 925 129.875C922.542 129 919.562 128.021 916.062 126.938C912.562 125.896 909.312 124.583 906.312 123C903.354 121.417 900.792 119.521 898.625 117.312C896.458 115.062 894.75 112.458 893.5 109.5C892.292 106.542 891.688 103.167 891.688 99.375C891.688 95.4583 892.375 91.875 893.75 88.625C895.125 85.375 897.229 82.6042 900.062 80.3125C902.896 77.9792 906.479 76.1667 910.812 74.875C915.188 73.5833 920.375 72.9375 926.375 72.9375C928.75 72.9375 931.271 73.0417 933.938 73.25C936.604 73.4583 939.312 73.7708 942.062 74.1875C944.854 74.6042 947.604 75.1458 950.312 75.8125C953.021 76.4792 955.583 77.2708 958 78.1875L957.062 97.5625ZM981.188 74.625H1009.19V109H1035.19V74.625H1063.19V163H1035.19V127H1009.19V163H981.188V74.625ZM1160.44 163H1127.06L1122.94 144.188H1101L1097.06 163H1074.5L1097 74.625H1136.12L1160.44 163ZM1112.25 88.375L1103.69 129.562H1121.56L1114.19 88.375H1112.25ZM1216.38 74.625H1243.44L1277.06 119V74.625H1298.44V163H1270.69L1237.56 116V163H1216.38V74.625ZM1319.81 74.625H1347.81V163H1319.81V74.625ZM1397.12 125.625V163H1369.12V74.625H1397.12V113.562L1417.12 74.625H1449.81L1424.5 117L1449.81 163H1417.12L1399.12 121.375L1397.12 125.625ZM1457.69 74.625H1519.69V91H1485.69V109.688H1515.69V125.688H1485.69V145H1519.69V163H1457.69V74.625ZM1550.12 163V95H1530.12V74.625H1598.56V95H1578.12V163H1550.12ZM1675.81 163H1642.44L1638.31 144.188H1616.38L1612.44 163H1589.88L1612.38 74.625H1651.5L1675.81 163ZM1627.62 88.375L1619.06 129.562H1636.94L1629.56 88.375H1627.62ZM1687.12 74.625H1714.19L1747.81 119V74.625H1769.19V163H1741.44L1708.31 116V163H1687.12V74.625Z" fill="#C10007"/>
<path d="M8.01562 221.719H29.0156V288H8.01562V221.719ZM45 221.719H65.2969L90.5156 255V221.719H106.547V288H85.7344L60.8906 252.75V288H45V221.719ZM130.031 288V237H115.031V221.719H166.359V237H151.031V288H130.031ZM174.891 221.719H221.391V234H195.891V248.016H218.391V260.016H195.891V274.5H221.391V288H174.891V221.719ZM236.719 221.719H266.531C271.25 221.719 275.406 222.344 279 223.594C282.594 224.812 285.578 226.438 287.953 228.469C290.359 230.469 292.172 232.75 293.391 235.312C294.609 237.844 295.219 240.406 295.219 243C295.219 245.031 295.016 247.047 294.609 249.047C294.203 251.016 293.484 252.891 292.453 254.672C291.422 256.422 290 258.016 288.188 259.453C286.406 260.859 284.125 262 281.344 262.875C281.75 264.188 282.438 265.812 283.406 267.75C284.375 269.688 285.5 271.781 286.781 274.031C288.062 276.281 289.438 278.609 290.906 281.016C292.375 283.422 293.812 285.75 295.219 288H271.219C269.875 284.969 268.5 281.578 267.094 277.828C265.688 274.047 264.562 269.938 263.719 265.5H257.719V288H236.719V221.719ZM261.281 255C263.656 255 265.656 254.688 267.281 254.062C268.938 253.438 270.281 252.625 271.312 251.625C272.344 250.625 273.078 249.5 273.516 248.25C273.984 247 274.219 245.75 274.219 244.5C274.219 242.031 273.875 240.016 273.188 238.453C272.5 236.891 271.562 235.672 270.375 234.797C269.188 233.891 267.812 233.281 266.25 232.969C264.688 232.656 263.016 232.5 261.234 232.5H257.719V255H261.281ZM334.781 255C334.781 249.656 335.734 244.859 337.641 240.609C339.578 236.328 342.188 232.703 345.469 229.734C348.75 226.734 352.562 224.438 356.906 222.844C361.25 221.25 365.859 220.453 370.734 220.453C374.141 220.453 377.609 220.781 381.141 221.438C384.672 222.094 388.188 223.281 391.688 225L388.781 240C386.031 238.5 383.312 237.375 380.625 236.625C377.938 235.875 375.469 235.5 373.219 235.5C370.5 235.5 368.062 235.953 365.906 236.859C363.75 237.734 361.922 239.016 360.422 240.703C358.922 242.391 357.766 244.438 356.953 246.844C356.172 249.25 355.781 251.969 355.781 255C355.781 258.031 356.172 260.75 356.953 263.156C357.766 265.562 358.922 267.609 360.422 269.297C361.922 270.984 363.75 272.281 365.906 273.188C368.062 274.062 370.5 274.5 373.219 274.5C375.469 274.5 377.938 274.125 380.625 273.375C383.312 272.625 386.031 271.5 388.781 270L391.688 285C388.188 286.688 384.672 287.828 381.141 288.422C377.609 289.047 374.141 289.359 370.734 289.359C365.859 289.359 361.25 288.578 356.906 287.016C352.562 285.422 348.75 283.156 345.469 280.219C342.188 277.25 339.578 273.641 337.641 269.391C335.734 265.141 334.781 260.344 334.781 255ZM434.672 289.359C430.578 289.359 426.922 288.906 423.703 288C420.484 287.125 417.641 285.906 415.172 284.344C412.734 282.75 410.656 280.875 408.938 278.719C407.25 276.531 405.859 274.172 404.766 271.641C403.703 269.078 402.922 266.391 402.422 263.578C401.953 260.766 401.719 257.906 401.719 255C401.719 252.125 402.016 249.281 402.609 246.469C403.203 243.625 404.094 240.922 405.281 238.359C406.469 235.797 407.969 233.422 409.781 231.234C411.594 229.047 413.719 227.156 416.156 225.562C418.594 223.969 421.344 222.719 424.406 221.812C427.5 220.906 430.922 220.453 434.672 220.453C438.422 220.453 441.828 220.906 444.891 221.812C447.984 222.719 450.75 223.969 453.188 225.562C455.656 227.156 457.797 229.047 459.609 231.234C461.422 233.422 462.922 235.797 464.109 238.359C465.328 240.922 466.234 243.625 466.828 246.469C467.422 249.281 467.719 252.125 467.719 255C467.719 257.906 467.469 260.766 466.969 263.578C466.469 266.391 465.672 269.078 464.578 271.641C463.516 274.172 462.125 276.531 460.406 278.719C458.688 280.875 456.609 282.75 454.172 284.344C451.734 285.906 448.891 287.125 445.641 288C442.422 288.906 438.766 289.359 434.672 289.359ZM422.719 255C422.719 258.75 422.984 261.953 423.516 264.609C424.078 267.266 424.859 269.438 425.859 271.125C426.891 272.812 428.141 274.047 429.609 274.828C431.109 275.609 432.797 276 434.672 276C436.547 276 438.219 275.609 439.688 274.828C441.188 274.047 442.453 272.812 443.484 271.125C444.547 269.438 445.344 267.266 445.875 264.609C446.438 261.953 446.719 258.75 446.719 255C446.719 251.25 446.438 248.047 445.875 245.391C445.344 242.703 444.547 240.516 443.484 238.828C442.453 237.109 441.188 235.844 439.688 235.031C438.219 234.219 436.547 233.812 434.672 233.812C432.797 233.812 431.109 234.219 429.609 235.031C428.141 235.844 426.891 237.109 425.859 238.828C424.859 240.516 424.078 242.703 423.516 245.391C422.984 248.047 422.719 251.25 422.719 255ZM480.094 221.719H501.094V274.5H523.594V288H480.094V221.719ZM534 221.719H555V274.5H577.5V288H534V221.719ZM587.953 221.719H634.453V234H608.953V248.016H631.453V260.016H608.953V274.5H634.453V288H587.953V221.719ZM682.453 289.359C679.016 289.359 675.734 288.969 672.609 288.188C669.484 287.438 666.578 286.344 663.891 284.906C661.203 283.469 658.766 281.719 656.578 279.656C654.422 277.594 652.562 275.266 651 272.672C649.469 270.078 648.281 267.25 647.438 264.188C646.594 261.125 646.172 257.859 646.172 254.391C646.172 249.328 647.172 244.719 649.172 240.562C651.203 236.375 654.016 232.797 657.609 229.828C661.234 226.828 665.531 224.516 670.5 222.891C675.5 221.266 680.984 220.453 686.953 220.453C690.172 220.453 693.578 220.703 697.172 221.203C700.766 221.672 704.359 222.438 707.953 223.5L704.953 238.5C701.734 237.344 698.797 236.547 696.141 236.109C693.484 235.641 690.922 235.406 688.453 235.406C685.172 235.406 682.219 235.875 679.594 236.812C676.969 237.719 674.734 239 672.891 240.656C671.047 242.312 669.625 244.328 668.625 246.703C667.656 249.047 667.172 251.641 667.172 254.484C667.172 257.641 667.5 260.453 668.156 262.922C668.812 265.391 669.828 267.484 671.203 269.203C672.578 270.922 674.312 272.234 676.406 273.141C678.531 274.047 681.047 274.5 683.953 274.5H689.953V260.766L679.453 262.172V250.5H707.953V282.188C705.641 283.562 703.406 284.719 701.25 285.656C699.094 286.562 696.969 287.297 694.875 287.859C692.781 288.391 690.703 288.766 688.641 288.984C686.609 289.234 684.547 289.359 682.453 289.359ZM722.391 221.719H768.891V234H743.391V248.016H765.891V260.016H743.391V274.5H768.891V288H722.391V221.719Z" fill="black"/>
</svg>
